<?xml version="1.0" encoding="utf-8"?>
<svg version="1.1" id="logo_bear" xmlns="http://www.w3.org/2000/svg" xmlns:xlink="http://www.w3.org/1999/xlink" x="0px" y="0px"
	 viewBox="0 0 500 106.81" style="enable-background:new 0 0 500 106.81;" xml:space="preserve">
<path fill="#1C2F50" d="M496.81,0H3.19C1.43,0,0,1.43,0,3.19v100.43c0,1.76,1.43,3.19,3.19,3.19h493.61c1.76,0,3.19-1.43,3.19-3.19
	V3.19C500,1.43,498.57,0,496.81,0z"/>
<g>
	<g>
		<path fill="#E9E7E4" d="M460.25,83.06c-3.5-0.8-6.51-3-8.66-5.88l-1.17-1.56l-0.73,0.58c-5.52,4.4-10.26,11.01-14.04,16.98h20.48
			l0.13-0.84c0.43-2.84,2.87-4.94,5.74-4.94h1.7C463.71,85.33,462.28,83.53,460.25,83.06z"/>
		<path fill="#E9E7E4" d="M394.71,73.21l-0.54,1.06c-1.88,3.7-4.63,6.88-8.01,9.27l-11.78,9.64h21.01l0.03-0.42
			c0.24-3.02,2.76-5.35,5.79-5.35h1.75c0-2.29-0.46-4.63-1.74-6.54C399.8,78.74,394.71,73.21,394.71,73.21z"/>
		<path fill="#E9E7E4" d="M423.74,73.21h-8.97v1.41c0,3.47-0.83,6.88-2.43,9.96l-3.78,8.6h10.16l0.24-1.69
			c0.41-2.86,2.86-4.99,5.75-4.99h3.36v-8.95C428.08,75.15,426.14,73.21,423.74,73.21z"/>
		<path fill="#E9E7E4" d="M483.17,13.64H301.3c-1.77,0-3.2,1.43-3.2,3.2v73.15c0,1.77,1.43,3.2,3.2,3.2h56.17l0.24-1.69
			c0.41-2.86,2.86-4.99,5.75-4.99h4.09l4.66-5.74c2.13-2.62,3.71-5.64,4.66-8.87l1.43-4.87h-5.33c-2.72,0-5.37,0.84-7.59,2.41
			l-2.82,1.99c-1.02-2.17-3.6-3.11-5.77-2.09l-5.2,2.43c-2.13,1.05-4.68,0.74-6.48-0.8l-5.36-5.01l5.94-6.99
			c1.1-1.29,0.94-3.23-0.36-4.33l5.46-6.43v-2.44c0-1.05,0.37-2.06,1.05-2.86l0.75-0.88l1.25,1.05c0.8,0.67,1.81,1.04,2.85,1.04
			h0.73c0-1.05,0.37-2.06,1.05-2.86l1.51-1.78l2.78,2.34l16.67-10.5c8.1-5.1,18.36-5.44,26.69-0.74c4.6,2.59,10.14,2.98,15.06,1.05
			c13.75-5.39,29.43-0.73,38.73,10.73l7.33,9.04c-1.4,1.29-1.72,3.38-0.75,5.03c2.02,3.45,2.78,7.48,2.72,11.48
			c-0.07,4.76,1,9.47,3.12,13.73l0.4,0.8v1.2c0,3.73-1.72,7.25-4.66,9.55h15.1c1.77,0,3.2-1.43,3.2-3.2V16.83
			C486.36,15.07,484.93,13.64,483.17,13.64z M331.6,54.56l-8.09-5.88l-8.09,5.88l3.09-9.51l-8.09-5.88h10l3.09-9.51l3.09,9.51h10
			l-8.09,5.88L331.6,54.56z"/>
	</g>
	<g>
		<path fill="#E9E7E4" d="M13.64,55.22c0-23.86,17.84-42.73,41.02-42.73c6.82,0,10.8,1.82,13.86,1.82c2.61,0,2.44-1.59,5.91-1.59
			c3.29,0,3.07,1.14,4.55,5.91c1.02,3.75,2.16,8.18,3.3,15c0.45,2.61,1.06,4.32-2.16,4.55c-3.22,0.23-3.18-1.59-5.23-4.55
			c-5-7.73-11.59-12.76-22.5-12.76c-15.68,0-25,12.19-25,28.21c0,20.34,11.48,33.32,29.66,33.32c10.57,0,17.39-2.6,23.18-8.85
			c1.5-1.43,4.5,1.47,3.3,3.75c-3.64,6.82-11,17-31.02,17C29.09,94.31,13.64,78.86,13.64,55.22z"/>
		<path fill="#E9E7E4" d="M153.71,67.61c0,16.82-12.95,25.57-34.88,25.57H95.19c-4.2,0-6.02,0-6.02-2.73c0-6.14,7.16-1.02,7.16-14.66
			V31.02c0-13.64-7.16-8.52-7.16-14.66c0-2.73,1.82-2.73,6.02-2.73h20.79c17.27,0,28.18,5.45,28.29,17.39
			c0,6.82-3.98,12.39-12.16,14.77C145.64,48.18,153.71,56.47,153.71,67.61z M109.51,40c0,2.5,3.3,2.39,6.25,2.39
			c10.79,0,15.11-2.73,15.11-9.66c0-7.5-6.14-11.13-15.45-11.13c-3.86,0-5.91,0.68-5.91,4.09V40z M139.05,70.11
			c0-12.05-8.52-19.31-23.86-19.31c-5,0-5.68,1.25-5.68,3.98v22.26c0,5.57,1.36,7.95,9.09,7.95
			C132.35,84.99,139.05,82.04,139.05,70.11z"/>
		<path fill="#E9E7E4" d="M222.02,13.63c3.18,0,5.23,0,5.23,2.61c0,5.08-5.91,2.27-9.43,11.36l-24.67,63.4
			c-0.51,1.31-1.77,2.17-3.17,2.17h-5.25c-1.39,0-2.64-0.85-3.16-2.14l-25.23-63.2c-3.75-9.32-8.41-6.28-8.41-11.36
			c0-2.84,1.59-2.84,5.8-2.84h15.79c3.18,0,5,0,5,2.61c0,5.53-7.27,2.73-3.75,11.59l18.9,48.2l18.47-48.98
			c3.41-9.09-1.88-6.37-1.88-10.7c0-2.73,2.05-2.73,4.66-2.73H222.02z"/>
		<path fill="#E9E7E4" d="M228.72,79.2c-3.52,9.09,2.2,6.51,2.2,11.25c0,2.73-2.05,2.73-4.66,2.73h-12.35c-3.18,0-5.23,0-5.23-2.61
			c0-5.08,5.91-2.27,9.43-11.36l20.07-50.61c3.93-9.93-3.02-7.83-3.02-12.23c0-2.73,1.02-2.73,3.41-2.73h14.17
			c1.82,0,2.95,0.8,3.64,2.5l24.77,62.84c3.75,9.32,8.41,6.28,8.41,11.36c0,2.84-1.59,2.84-5.8,2.84h-15.79c-3.18,0-5,0-5-2.61
			c0-5.54,6.63-2.73,3.11-11.59l-1.52-4.32c-1.36-3.41-1.36-3.41-16.82-3.41c-16.02,0-16.02,0-17.27,3.3L228.72,79.2z M259.67,59.99
			L247.4,29.65l-12.16,30.34c-1.14,2.95-1.14,2.95,12.61,2.95C260.81,62.95,260.81,62.95,259.67,59.99z"/>
	</g>
</g>
</svg>
